<svg width="64" height="64" fill="none" xmlns="http://www.w3.org/2000/svg"><path d="M60.449 13.716a3.71 3.71 0 001.87-.5 3.09 3.09 0 001.238-1.332 2.642 2.642 0 00.192-1.715 2.877 2.877 0 00-.92-1.519 3.526 3.526 0 00-1.724-.812 3.786 3.786 0 00-1.944.169A3.31 3.31 0 0057.65 9.1a2.724 2.724 0 00-.568 1.648c0 .39.087.776.256 1.136.17.36.417.687.73.963.312.275.683.494 1.092.643.408.149.846.226 1.288.226z" fill="url(#paint0_linear)"/><path d="M45.897 25.31c.653 0 1.28-.229 1.74-.636.463-.407.722-.959.722-1.535 0-.575-.26-1.127-.721-1.535a2.639 2.639 0 00-1.74-.635 2.64 2.64 0 00-1.741.635c-.462.408-.721.96-.721 1.535 0 .576.259 1.128.72 1.535a2.64 2.64 0 001.741.636z" fill="url(#paint1_linear)"/><path d="M36.225 4.726c.711 0 1.393-.249 1.895-.692.503-.443.785-1.044.785-1.671s-.282-1.228-.785-1.67A2.872 2.872 0 0036.225 0c-.71 0-1.392.249-1.895.692-.502.443-.784 1.044-.784 1.671s.282 1.228.785 1.67a2.873 2.873 0 001.894.693z" fill="url(#paint2_linear)"/><path d="M36.225 63.836c.711 0 1.393-.25 1.895-.692.503-.444.785-1.044.785-1.671s-.282-1.228-.785-1.671a2.872 2.872 0 00-1.895-.692c-.71 0-1.392.249-1.895.692-.502.443-.784 1.044-.784 1.67 0 .627.282 1.228.785 1.672a2.872 2.872 0 001.894.692z" fill="url(#paint3_linear)"/><path d="M48.116 58.703a2.54 2.54 0 00.884-.146c.28-.1.536-.248.752-.435.215-.188.386-.411.503-.658.116-.246.176-.51.176-.777s-.06-.532-.176-.778a2.025 2.025 0 00-.504-.657 2.337 2.337 0 00-.752-.436c-.28-.1-.58-.15-.884-.146a2.446 2.446 0 00-1.598.6c-.423.377-.66.886-.66 1.417 0 .53.237 1.04.66 1.417.423.377.997.593 1.599.6z" fill="url(#paint4_linear)"/><path d="M8.188 23.502c.559 0 1.095-.195 1.49-.544.395-.348.617-.82.617-1.313s-.222-.965-.617-1.313a2.258 2.258 0 00-1.49-.544c-.558 0-1.094.195-1.489.544-.395.348-.617.82-.617 1.313 0 .492.222.965.617 1.313.395.349.93.544 1.49.544z" fill="url(#paint5_linear)"/><path d="M8.188 44.356a2.26 2.26 0 001.49-.544c.395-.348.617-.82.617-1.313s-.222-.965-.617-1.313a2.257 2.257 0 00-1.49-.544c-.558 0-1.093.195-1.488.543a1.755 1.755 0 00-.617 1.314c0 .492.222.965.617 1.313s.93.544 1.489.544z" fill="url(#paint6_linear)"/><path d="M2.786 34.454c.738 0 1.447-.26 1.97-.72.522-.46.815-1.085.815-1.737 0-.651-.293-1.276-.816-1.736a2.986 2.986 0 00-1.97-.72c-.738 0-1.447.259-1.97.72C.294 30.72 0 31.346 0 31.997c0 .652.293 1.277.816 1.737.522.46 1.23.72 1.97.72z" fill="url(#paint7_linear)"/><path d="M11.89 35.86c2.42 0 4.381-1.73 4.381-3.863s-1.961-3.863-4.38-3.863c-2.42 0-4.382 1.73-4.382 3.863 0 2.134 1.962 3.864 4.381 3.864z" fill="url(#paint8_linear)"/><path d="M24.454 58.703a2.45 2.45 0 001.617-.59c.429-.379.67-.892.67-1.426 0-.535-.241-1.048-.67-1.426a2.451 2.451 0 00-1.617-.591c-.607 0-1.189.212-1.617.59-.43.379-.67.892-.67 1.427s.24 1.047.67 1.426c.428.378 1.01.59 1.617.59z" fill="url(#paint9_linear)"/><path d="M48.116 8.99A2.56 2.56 0 0049 8.844c.28-.1.536-.248.752-.436.215-.187.386-.41.503-.657a1.814 1.814 0 000-1.555 2.025 2.025 0 00-.504-.658A2.334 2.334 0 0049 5.103a2.56 2.56 0 00-.884-.146 2.446 2.446 0 00-1.598.6c-.423.377-.66.886-.66 1.417 0 .53.237 1.04.66 1.417a2.45 2.45 0 001.599.599z" fill="url(#paint10_linear)"/><path d="M24.454 8.99c.606 0 1.188-.213 1.617-.59.429-.379.67-.892.67-1.427s-.241-1.048-.67-1.426a2.451 2.451 0 00-1.617-.59c-.607 0-1.189.212-1.617.59-.43.378-.67.891-.67 1.426 0 .535.24 1.048.67 1.426.428.379 1.01.591 1.617.591z" fill="url(#paint11_linear)"/><path d="M45.897 42.586c.324 0 .644-.056.942-.165.299-.109.57-.269.799-.47.228-.202.41-.441.533-.705a1.95 1.95 0 00.188-.83c0-.576-.26-1.128-.721-1.535a2.638 2.638 0 00-1.74-.636 2.64 2.64 0 00-1.741.636c-.462.407-.721.96-.721 1.535 0 .576.26 1.128.72 1.535a2.639 2.639 0 001.741.635z" fill="url(#paint12_linear)"/><path d="M36.225 45.757c.326.004.65-.05.952-.158a2.49 2.49 0 00.808-.468c.232-.202.416-.443.542-.708.125-.265.19-.55.19-.837a1.95 1.95 0 00-.19-.837 2.18 2.18 0 00-.542-.707 2.513 2.513 0 00-.809-.469 2.755 2.755 0 00-.951-.157 2.634 2.634 0 00-1.722.645c-.455.406-.71.954-.71 1.526 0 .57.255 1.119.71 1.525a2.634 2.634 0 001.722.645z" fill="url(#paint13_linear)"/><path d="M36.225 22.04c.653 0 1.28-.228 1.741-.635.462-.407.721-.96.721-1.535 0-.576-.26-1.128-.72-1.535a2.639 2.639 0 00-1.742-.636c-.652 0-1.279.229-1.74.636-.462.407-.721.96-.721 1.535 0 .576.26 1.128.72 1.535a2.638 2.638 0 001.741.636z" fill="url(#paint14_linear)"/><path d="M26.635 25.31c.325.003.649-.05.95-.158.303-.107.578-.267.81-.468a2.18 2.18 0 00.54-.708c.126-.265.191-.55.191-.836a1.95 1.95 0 00-.19-.837 2.177 2.177 0 00-.541-.708 2.513 2.513 0 00-.81-.468 2.754 2.754 0 00-.95-.158c-.653 0-1.28.229-1.741.636-.462.407-.721.959-.721 1.535 0 .575.26 1.127.721 1.534a2.639 2.639 0 001.74.636z" fill="url(#paint15_linear)"/><path d="M22.303 34.168c.653 0 1.28-.229 1.741-.636.462-.407.721-.959.721-1.534 0-.576-.26-1.128-.721-1.535a2.638 2.638 0 00-1.74-.636c-.653 0-1.28.229-1.741.636-.462.407-.721.959-.721 1.535 0 .575.26 1.127.72 1.534a2.639 2.639 0 001.741.636z" fill="url(#paint16_linear)"/><path d="M26.635 42.586c.652 0 1.279-.228 1.74-.635.462-.407.721-.96.721-1.535 0-.576-.26-1.128-.72-1.535a2.64 2.64 0 00-1.741-.636c-.653 0-1.28.23-1.74.636-.462.407-.722.96-.722 1.535 0 .576.26 1.128.721 1.535a2.638 2.638 0 001.74.635z" fill="url(#paint17_linear)"/><path d="M43.579 50.604c2.137 0 3.87-1.528 3.87-3.413 0-1.884-1.733-3.412-3.87-3.412s-3.87 1.528-3.87 3.412c0 1.885 1.733 3.413 3.87 3.413z" fill="url(#paint18_linear)"/><path d="M36.225 56.901c2.537 0 4.593-1.813 4.593-4.05 0-2.236-2.056-4.05-4.593-4.05-2.536 0-4.593 1.813-4.593 4.05s2.057 4.05 4.593 4.05z" fill="url(#paint19_linear)"/><path d="M36.225 14.798c2.537 0 4.593-1.813 4.593-4.05 0-2.236-2.056-4.05-4.593-4.05-2.536 0-4.593 1.813-4.593 4.05s2.057 4.05 4.593 4.05z" fill="url(#paint20_linear)"/><path d="M53.438 50.604c2.137 0 3.87-1.528 3.87-3.413 0-1.884-1.733-3.412-3.87-3.412-2.138 0-3.87 1.528-3.87 3.412 0 1.885 1.733 3.413 3.87 3.413z" fill="url(#paint21_linear)"/><path d="M43.579 19.683c2.137 0 3.87-1.527 3.87-3.412s-1.733-3.413-3.87-3.413-3.87 1.528-3.87 3.413c0 1.884 1.733 3.412 3.87 3.412z" fill="url(#paint22_linear)"/><path d="M53.438 19.683c2.137 0 3.87-1.527 3.87-3.412s-1.733-3.413-3.87-3.413c-2.138 0-3.87 1.528-3.87 3.413 0 1.884 1.733 3.412 3.87 3.412z" fill="url(#paint23_linear)"/><path d="M28.847 19.683c2.137 0 3.87-1.527 3.87-3.412s-1.732-3.413-3.87-3.413c-2.137 0-3.87 1.528-3.87 3.413 0 1.884 1.733 3.412 3.87 3.412z" fill="url(#paint24_linear)"/><path d="M18.702 28.783c1.992 0 3.608-1.424 3.608-3.182 0-1.757-1.615-3.181-3.608-3.181s-3.609 1.424-3.609 3.181c0 1.758 1.616 3.182 3.609 3.182z" fill="url(#paint25_linear)"/><path d="M18.702 41.658c1.992 0 3.608-1.425 3.608-3.182s-1.615-3.181-3.608-3.181-3.609 1.424-3.609 3.181c0 1.757 1.616 3.182 3.609 3.182z" fill="url(#paint26_linear)"/><path d="M19.013 20.046c2.365 0 4.282-1.69 4.282-3.775s-1.918-3.775-4.282-3.775-4.28 1.69-4.28 3.775 1.916 3.775 4.28 3.775z" fill="url(#paint27_linear)"/><path d="M28.847 50.604c2.137 0 3.87-1.528 3.87-3.413 0-1.884-1.733-3.412-3.87-3.412s-3.87 1.528-3.87 3.412c0 1.885 1.733 3.413 3.87 3.413z" fill="url(#paint28_linear)"/><path d="M19.013 50.966c2.365 0 4.282-1.69 4.282-3.775s-1.917-3.775-4.282-3.775c-2.364 0-4.28 1.69-4.28 3.775s1.916 3.775 4.28 3.775z" fill="url(#paint29_linear)"/><path d="M60.449 55.818c.442 0 .88-.076 1.287-.225.409-.15.78-.368 1.092-.644.313-.275.56-.602.73-.962.169-.36.256-.746.256-1.136 0-.787-.355-1.542-.986-2.098-.631-.557-1.487-.87-2.38-.87-.441 0-.879.077-1.287.226-.409.15-.78.368-1.092.644-.313.275-.56.602-.73.962-.169.36-.256.746-.256 1.136 0 .39.087.776.256 1.136.17.36.417.687.73.962.312.276.683.495 1.092.644.408.149.846.225 1.288.225z" fill="url(#paint30_linear)"/><path d="M12.912 55.818c.442 0 .88-.076 1.288-.225.408-.15.78-.368 1.092-.644.312-.275.56-.602.73-.962.169-.36.256-.746.255-1.136 0-.587-.197-1.16-.567-1.648a3.31 3.31 0 00-1.51-1.093 3.786 3.786 0 00-1.944-.17 3.525 3.525 0 00-1.723.813c-.47.415-.791.944-.921 1.52a2.643 2.643 0 00.191 1.714 3.082 3.082 0 001.24 1.331c.553.326 1.204.5 1.87.5z" fill="url(#paint31_linear)"/><path d="M12.912 13.716c.442 0 .88-.077 1.288-.226.408-.15.78-.368 1.092-.644.312-.275.56-.602.73-.962.168-.36.255-.746.255-1.136 0-.39-.087-.775-.256-1.135a2.972 2.972 0 00-.73-.963 3.427 3.427 0 00-1.091-.643 3.76 3.76 0 00-1.288-.226c-.892 0-1.748.312-2.38.869-.63.556-.985 1.311-.985 2.098 0 .787.355 1.542.986 2.098.63.557 1.487.87 2.38.87z" fill="url(#paint32_linear)"/><defs><linearGradient id="paint0_linear" x1=".2" y1="32.146" x2="63.764" y2="32.146" gradientUnits="userSpaceOnUse"><stop stop-color="#A56FA3"/><stop offset=".882" stop-color="#DF8D94"/></linearGradient><linearGradient id="paint1_linear" x1=".2" y1="32.146" x2="63.764" y2="32.146" gradientUnits="userSpaceOnUse"><stop stop-color="#A56FA3"/><stop offset=".882" stop-color="#DF8D94"/></linearGradient><linearGradient id="paint2_linear" x1=".2" y1="32.146" x2="63.764" y2="32.146" gradientUnits="userSpaceOnUse"><stop stop-color="#A56FA3"/><stop offset=".882" stop-color="#DF8D94"/></linearGradient><linearGradient id="paint3_linear" x1=".2" y1="32.146" x2="63.764" y2="32.146" gradientUnits="userSpaceOnUse"><stop stop-color="#A56FA3"/><stop offset=".882" stop-color="#DF8D94"/></linearGradient><linearGradient id="paint4_linear" x1=".2" y1="32.146" x2="63.764" y2="32.146" gradientUnits="userSpaceOnUse"><stop stop-color="#A56FA3"/><stop offset=".882" stop-color="#DF8D94"/></linearGradient><linearGradient id="paint5_linear" x1=".2" y1="32.146" x2="63.764" y2="32.146" gradientUnits="userSpaceOnUse"><stop stop-color="#A56FA3"/><stop offset=".882" stop-color="#DF8D94"/></linearGradient><linearGradient id="paint6_linear" x1=".2" y1="32.146" x2="63.764" y2="32.146" gradientUnits="userSpaceOnUse"><stop stop-color="#A56FA3"/><stop offset=".882" stop-color="#DF8D94"/></linearGradient><linearGradient id="paint7_linear" x1=".2" y1="32.146" x2="63.764" y2="32.146" gradientUnits="userSpaceOnUse"><stop stop-color="#A56FA3"/><stop offset=".882" stop-color="#DF8D94"/></linearGradient><linearGradient id="paint8_linear" x1=".199" y1="32.146" x2="63.764" y2="32.146" gradientUnits="userSpaceOnUse"><stop stop-color="#A56FA3"/><stop offset=".882" stop-color="#DF8D94"/></linearGradient><linearGradient id="paint9_linear" x1=".2" y1="32.146" x2="63.764" y2="32.146" gradientUnits="userSpaceOnUse"><stop stop-color="#A56FA3"/><stop offset=".882" stop-color="#DF8D94"/></linearGradient><linearGradient id="paint10_linear" x1=".2" y1="32.146" x2="63.764" y2="32.146" gradientUnits="userSpaceOnUse"><stop stop-color="#A56FA3"/><stop offset=".882" stop-color="#DF8D94"/></linearGradient><linearGradient id="paint11_linear" x1=".2" y1="32.146" x2="63.764" y2="32.146" gradientUnits="userSpaceOnUse"><stop stop-color="#A56FA3"/><stop offset=".882" stop-color="#DF8D94"/></linearGradient><linearGradient id="paint12_linear" x1=".199" y1="32.146" x2="63.764" y2="32.146" gradientUnits="userSpaceOnUse"><stop stop-color="#A56FA3"/><stop offset=".882" stop-color="#DF8D94"/></linearGradient><linearGradient id="paint13_linear" x1=".199" y1="32.146" x2="63.764" y2="32.146" gradientUnits="userSpaceOnUse"><stop stop-color="#A56FA3"/><stop offset=".882" stop-color="#DF8D94"/></linearGradient><linearGradient id="paint14_linear" x1=".2" y1="32.146" x2="63.764" y2="32.146" gradientUnits="userSpaceOnUse"><stop stop-color="#A56FA3"/><stop offset=".882" stop-color="#DF8D94"/></linearGradient><linearGradient id="paint15_linear" x1=".199" y1="32.146" x2="63.764" y2="32.146" gradientUnits="userSpaceOnUse"><stop stop-color="#A56FA3"/><stop offset=".882" stop-color="#DF8D94"/></linearGradient><linearGradient id="paint16_linear" x1=".2" y1="32.146" x2="63.764" y2="32.146" gradientUnits="userSpaceOnUse"><stop stop-color="#A56FA3"/><stop offset=".882" stop-color="#DF8D94"/></linearGradient><linearGradient id="paint17_linear" x1=".199" y1="32.146" x2="63.764" y2="32.146" gradientUnits="userSpaceOnUse"><stop stop-color="#A56FA3"/><stop offset=".882" stop-color="#DF8D94"/></linearGradient><linearGradient id="paint18_linear" x1=".199" y1="32.146" x2="63.764" y2="32.146" gradientUnits="userSpaceOnUse"><stop stop-color="#A56FA3"/><stop offset=".882" stop-color="#DF8D94"/></linearGradient><linearGradient id="paint19_linear" x1=".2" y1="32.146" x2="63.764" y2="32.146" gradientUnits="userSpaceOnUse"><stop stop-color="#A56FA3"/><stop offset=".882" stop-color="#DF8D94"/></linearGradient><linearGradient id="paint20_linear" x1=".2" y1="32.146" x2="63.764" y2="32.146" gradientUnits="userSpaceOnUse"><stop stop-color="#A56FA3"/><stop offset=".882" stop-color="#DF8D94"/></linearGradient><linearGradient id="paint21_linear" x1=".199" y1="32.146" x2="63.764" y2="32.146" gradientUnits="userSpaceOnUse"><stop stop-color="#A56FA3"/><stop offset=".882" stop-color="#DF8D94"/></linearGradient><linearGradient id="paint22_linear" x1=".199" y1="32.146" x2="63.764" y2="32.146" gradientUnits="userSpaceOnUse"><stop stop-color="#A56FA3"/><stop offset=".882" stop-color="#DF8D94"/></linearGradient><linearGradient id="paint23_linear" x1=".199" y1="32.146" x2="63.764" y2="32.146" gradientUnits="userSpaceOnUse"><stop stop-color="#A56FA3"/><stop offset=".882" stop-color="#DF8D94"/></linearGradient><linearGradient id="paint24_linear" x1=".2" y1="32.146" x2="63.764" y2="32.146" gradientUnits="userSpaceOnUse"><stop stop-color="#A56FA3"/><stop offset=".882" stop-color="#DF8D94"/></linearGradient><linearGradient id="paint25_linear" x1=".2" y1="32.146" x2="63.764" y2="32.146" gradientUnits="userSpaceOnUse"><stop stop-color="#A56FA3"/><stop offset=".882" stop-color="#DF8D94"/></linearGradient><linearGradient id="paint26_linear" x1=".2" y1="32.146" x2="63.764" y2="32.146" gradientUnits="userSpaceOnUse"><stop stop-color="#A56FA3"/><stop offset=".882" stop-color="#DF8D94"/></linearGradient><linearGradient id="paint27_linear" x1=".2" y1="32.146" x2="63.764" y2="32.146" gradientUnits="userSpaceOnUse"><stop stop-color="#A56FA3"/><stop offset=".882" stop-color="#DF8D94"/></linearGradient><linearGradient id="paint28_linear" x1=".2" y1="32.146" x2="63.764" y2="32.146" gradientUnits="userSpaceOnUse"><stop stop-color="#A56FA3"/><stop offset=".882" stop-color="#DF8D94"/></linearGradient><linearGradient id="paint29_linear" x1=".2" y1="32.146" x2="63.764" y2="32.146" gradientUnits="userSpaceOnUse"><stop stop-color="#A56FA3"/><stop offset=".882" stop-color="#DF8D94"/></linearGradient><linearGradient id="paint30_linear" x1=".199" y1="32.146" x2="63.764" y2="32.146" gradientUnits="userSpaceOnUse"><stop stop-color="#A56FA3"/><stop offset=".882" stop-color="#DF8D94"/></linearGradient><linearGradient id="paint31_linear" x1=".199" y1="32.146" x2="63.764" y2="32.146" gradientUnits="userSpaceOnUse"><stop stop-color="#A56FA3"/><stop offset=".882" stop-color="#DF8D94"/></linearGradient><linearGradient id="paint32_linear" x1=".199" y1="32.146" x2="63.764" y2="32.146" gradientUnits="userSpaceOnUse"><stop stop-color="#A56FA3"/><stop offset=".882" stop-color="#DF8D94"/></linearGradient></defs></svg>