<svg width="64" height="64" fill="none" xmlns="http://www.w3.org/2000/svg"><g filter="url(#filter0_d)" clip-path="url(#clip0)"><path d="M2.648 43.9C1.007 43.075 0 41.622 0 40.043v-8.772c0-.341.11-.664.306-.95.635-.898 2.058-1.203 3.152-.683L27.6 41.173c1.401.682 2.276 1.92 2.276 3.247v9.078c0 .412-.13.825-.393 1.184-.788 1.058-2.496 1.4-3.787.753L2.648 43.9zM38.63 27.252c1.401.682 2.277 1.92 2.277 3.248v18.423c0 .539-.35 1.04-.941 1.31L34.69 52.69a.744.744 0 01-.219.072V42.537c0-1.328-.853-2.548-2.233-3.23L11.054 28.92V17.35c0-.341.11-.664.306-.95.634-.898 2.058-1.203 3.151-.683l24.12 11.535zm10.55-13.598c1.423.664 2.298 1.92 2.298 3.265v26.91c0 .555-.372 1.058-.962 1.327l-5.013 2.224V28.633c0-1.327-.853-2.547-2.233-3.229L21.603 14.75V3.787c0-.34.11-.664.307-.95.635-.897 2.057-1.202 3.15-.682l24.12 11.5v-.002z" fill="#00D395"/></g><defs><clipPath id="clip0"><path fill="#fff" d="M0 0h64v64H0z"/></clipPath><filter id="filter0_d" x="0" y="-1.099" width="69.478" height="69.861" filterUnits="userSpaceOnUse" color-interpolation-filters="sRGB"><feFlood flood-opacity="0" result="BackgroundImageFix"/><feColorMatrix in="SourceAlpha" values="0 0 0 0 0 0 0 0 0 0 0 0 0 0 0 0 0 0 127 0"/><feOffset dx="10" dy="5"/><feGaussianBlur stdDeviation="4"/><feColorMatrix values="0 0 0 0 0 0 0 0 0 0 0 0 0 0 0 0 0 0 0.4 0"/><feBlend in2="BackgroundImageFix" result="effect1_dropShadow"/><feBlend in="SourceGraphic" in2="effect1_dropShadow" result="shape"/></filter></defs></svg>