<svg width="64" height="64" fill="none" xmlns="http://www.w3.org/2000/svg"><path d="M30.998.024a8.673 8.673 0 00-6.573 3.898c-.713 1.083-1.134 2.213-1.34 3.598-.072.469-.062 1.83.016 2.343a8.683 8.683 0 004.38 6.329 8.596 8.596 0 008.006.173c2.648-1.334 4.424-3.87 4.746-6.79.058-.506.048-1.532-.017-2.02-.387-2.917-2.152-5.379-4.783-6.672a8.435 8.435 0 00-3.026-.849c-.35-.03-1.059-.037-1.409-.01zm1.426 4.101c.914.15 1.773.598 2.462 1.29.839.836 1.287 1.875 1.33 3.073a4.332 4.332 0 01-.427 2.092c-.621 1.303-1.732 2.19-3.174 2.532-.421.102-1.416.11-1.854.017a4.573 4.573 0 01-2.275-1.201 4.466 4.466 0 01-1.402-3.287 4.312 4.312 0 01.482-2.064c.662-1.304 1.85-2.184 3.314-2.452.336-.064 1.154-.06 1.544 0zm-21.716 7.422a8.677 8.677 0 00-4.46 1.722c-.503.377-1.294 1.168-1.671 1.67a8.781 8.781 0 00-1.695 4.142c-.06.421-.06 1.718 0 2.14.133.967.415 1.894.819 2.709.472.944.93 1.585 1.663 2.315a8.553 8.553 0 004.839 2.451c.61.096 1.83.102 2.403.017 1.95-.295 3.586-1.11 4.95-2.468a8.646 8.646 0 002.462-4.99c.078-.575.078-1.634 0-2.208-.394-2.893-2.166-5.368-4.753-6.634-.282-.14-.686-.316-.9-.394a8.789 8.789 0 00-3.657-.472zm1.861 4.166a4.601 4.601 0 013.229 3.005c.173.506.21.774.21 1.433 0 .658-.037.923-.207 1.433a4.65 4.65 0 01-3.276 3.018c-.486.122-1.29.15-1.8.064a4.609 4.609 0 01-3.782-3.734 6.013 6.013 0 010-1.562 4.621 4.621 0 013.14-3.582c.537-.17.799-.204 1.478-.19.55.01.652.023 1.008.115zm39.181-4.169c-.71.071-1.589.265-2.197.489-.777.288-1.806.869-2.41 1.358-1.766 1.43-2.91 3.45-3.188 5.622a8.616 8.616 0 00.17 3.185c.773 3.161 3.316 5.663 6.474 6.37.727.162 1.073.2 1.908.2.638.003.87-.01 1.256-.072a8.573 8.573 0 004.839-2.45 8.075 8.075 0 001.667-2.327c.41-.838.675-1.707.818-2.716.054-.397.054-1.708 0-2.105-.14-.984-.4-1.86-.798-2.679a8.18 8.18 0 00-1.684-2.366 8.081 8.081 0 00-2.33-1.66 8.095 8.095 0 00-2.505-.785c-.52-.078-1.548-.108-2.02-.064zm1.524 4.095a4.597 4.597 0 013.576 3.069 4.1 4.1 0 01.227 1.443 4.1 4.1 0 01-.227 1.443 4.59 4.59 0 01-3.61 3.072 4.983 4.983 0 01-1.836-.078c-2.061-.536-3.464-2.332-3.464-4.437 0-1.233.466-2.35 1.342-3.23a4.573 4.573 0 012.461-1.286c.357-.064 1.141-.064 1.531.004zM27.121 21.9c-.407.07-.87.26-1.188.495a3.017 3.017 0 00-.785.923c-.24.462-.308.75-.308 1.28s.067.815.308 1.287c.133.251.218.367.486.632.438.434.845.655 1.42.767 1.252.241 2.549-.465 3.031-1.65a2.773 2.773 0 00-.271-2.577 3.255 3.255 0 00-.802-.767 2.796 2.796 0 00-1.89-.39zm8.189.013c-1.096.234-1.932 1.063-2.152 2.135-.282 1.359.512 2.713 1.847 3.155.298.098.36.105.797.108.537.004.754-.04 1.162-.23a2.765 2.765 0 001.51-1.776c.11-.377.11-1.036 0-1.413a2.776 2.776 0 00-.682-1.188 2.65 2.65 0 00-1.229-.737c-.326-.091-.944-.119-1.253-.054zm-12.12 6.963a2.783 2.783 0 00-2.092 1.99c-.048.163-.061.34-.061.71 0 .465.007.509.108.814.16.465.34.747.7 1.104.353.35.726.567 1.192.703.356.098 1.035.108 1.375.013 1.572-.431 2.427-2.017 1.915-3.548-.133-.394-.326-.696-.673-1.039-.363-.36-.577-.495-1.046-.655-.308-.105-.393-.119-.77-.129-.292-.01-.5.003-.649.037zm16.53-.003c-.332.071-.658.21-.97.414a2.73 2.73 0 001.925 4.97 2.714 2.714 0 002.023-1.476c.204-.411.286-.76.289-1.195 0-.19-.01-.404-.024-.476a2.769 2.769 0 00-1.949-2.183c-.326-.095-.97-.119-1.293-.054zM10.848 34.18c-2.054.166-3.878.974-5.334 2.363-1.436 1.371-2.312 3.069-2.618 5.072-.071.465-.081 1.79-.017 2.234a8.861 8.861 0 00.818 2.716c.306.618.472.89.883 1.443a10.72 10.72 0 001.443 1.494 9.65 9.65 0 002.479 1.41 8.87 8.87 0 003.51.498 8.265 8.265 0 002.146-.42c2.597-.85 4.668-2.94 5.517-5.562.282-.88.401-1.643.401-2.614.003-1.03-.116-1.78-.435-2.737a8.453 8.453 0 00-2.054-3.344 8.519 8.519 0 00-5.398-2.54 9.9 9.9 0 00-1.341-.013zm1.378 4.105a4.584 4.584 0 013.032 1.976c.336.505.55 1.008.683 1.612.085.38.105 1.195.037 1.61a4.597 4.597 0 01-3.154 3.68c-.465.15-.73.183-1.4.183-.583 0-.678-.01-1-.091a4.628 4.628 0 01-1.21-.472 4.636 4.636 0 01-2.27-3.205c-.069-.398-.072-1.165 0-1.555a4.641 4.641 0 012.46-3.318c.466-.23.877-.36 1.46-.451.235-.037 1.067-.02 1.362.03zm39.5-4.095c-2.207.224-4.196 1.229-5.64 2.842a8.613 8.613 0 00-.315 11.146 8.71 8.71 0 004.037 2.811c.76.252 1.328.36 2.16.421a8.373 8.373 0 002.715-.261 8.727 8.727 0 004.18-2.516 8.19 8.19 0 001.385-2.034 8.653 8.653 0 00.839-2.75c.054-.397.054-1.708 0-2.105-.197-1.375-.676-2.658-1.389-3.724a8.706 8.706 0 00-6.003-3.783c-.42-.06-1.558-.088-1.969-.047zm1.732 4.122c.883.2 1.63.607 2.268 1.236a4.62 4.62 0 011.297 2.475c.068.393.068 1.14 0 1.544a4.627 4.627 0 01-2.272 3.216 4.625 4.625 0 01-1.208.472c-.323.081-.418.091-1.002.091-.669 0-.934-.034-1.399-.183a4.597 4.597 0 01-3.154-3.68c-.068-.418-.047-1.23.038-1.62.196-.9.614-1.657 1.27-2.309a4.539 4.539 0 012.43-1.273c.36-.064 1.396-.047 1.732.03zM27.073 36.23a3.878 3.878 0 00-.468.136 2.779 2.779 0 00-1.63 1.664c-.512 1.531.343 3.117 1.915 3.548.34.095 1.019.085 1.372-.014a2.63 2.63 0 001.195-.703c.53-.522.784-1.083.818-1.796a2.713 2.713 0 00-2.173-2.818 3.37 3.37 0 00-1.029-.017zm8.91-.003a2.78 2.78 0 00-.758.261 2.364 2.364 0 00-.733.544c-.336.353-.52.672-.662 1.154a2.95 2.95 0 00-.017 1.42 2.744 2.744 0 003.127 2.006c.995-.18 1.796-.886 2.129-1.871.081-.248.092-.32.092-.798.003-.462-.007-.557-.075-.78-.289-.92-.981-1.61-1.874-1.868-.286-.082-.954-.119-1.23-.068zM30.95 46.752a8.534 8.534 0 00-3.16.9 8.62 8.62 0 00-4.512 5.62c-.17.695-.224 1.11-.248 1.867-.072 2.447.852 4.702 2.628 6.416 1.578 1.528 3.51 2.35 5.714 2.431 2.787.106 5.514-1.208 7.191-3.463a8.516 8.516 0 001.701-4.651c.268-4.553-3.062-8.536-7.602-9.086-.428-.05-1.29-.068-1.711-.034zm1.444 4.095c1.976.336 3.48 1.87 3.786 3.867a5.23 5.23 0 01-.038 1.528 4.658 4.658 0 01-2.482 3.236 5.12 5.12 0 01-1.28.4c-.472.078-1.348.051-1.755-.05-1.382-.347-2.492-1.233-3.09-2.466a4.597 4.597 0 01-.234-3.422 4.621 4.621 0 013.545-3.083 5.38 5.38 0 011.548-.01z" fill="#fff"/></svg>