<svg width="11" height="12" fill="none" xmlns="http://www.w3.org/2000/svg"><g clip-path="url(#clip0)"><path d="M9.256 0H1.228A1.23 1.23 0 000 1.234v8.1c0 .683.551 1.235 1.228 1.235h6.794L7.705 9.46l.767.713.725.671 1.288 1.138V1.234C10.485.551 9.933 0 9.256 0zM6.944 7.825s-.216-.258-.396-.486c.785-.221 1.085-.713 1.085-.713-.246.162-.48.276-.69.354a3.86 3.86 0 01-.868.257 4.197 4.197 0 01-1.552-.006 5.033 5.033 0 01-.88-.257 3.515 3.515 0 01-.438-.204c-.018-.012-.036-.018-.054-.03a.083.083 0 01-.024-.018c-.107-.06-.167-.102-.167-.102s.287.48 1.048.707c-.18.228-.401.498-.401.498-1.324-.042-1.828-.911-1.828-.911 0-1.93.863-3.493.863-3.493.863-.647 1.684-.63 1.684-.63l.06.073c-1.079.311-1.576.785-1.576.785s.132-.072.353-.174c.641-.282 1.15-.36 1.36-.378.036-.006.066-.012.102-.012a4.884 4.884 0 013.014.563s-.473-.449-1.492-.76l.084-.096s.82-.018 1.683.629c0 0 .863 1.564.863 3.493 0 0-.51.869-1.833.91zM4.158 5.027c-.342 0-.611.3-.611.665 0 .365.275.665.61.665.342 0 .612-.3.612-.665.006-.366-.27-.665-.611-.665zm2.187 0c-.342 0-.611.3-.611.665 0 .365.275.665.61.665.342 0 .612-.3.612-.665 0-.366-.27-.665-.611-.665z" fill="#7289DA"/></g><defs><clipPath id="clip0"><path fill="#fff" d="M0 0h10.485v12H0z"/></clipPath></defs></svg>