<svg width="12" height="12" fill="none" xmlns="http://www.w3.org/2000/svg"><g clip-path="url(#clip0)"><path d="M11.338 12a.662.662 0 00.662-.662V.662A.662.662 0 0011.338 0H.662A.662.662 0 000 .662v10.676c0 .366.296.662.662.662h10.676z" fill="#395185"/><path d="M8.28 12V7.353h1.56l.233-1.811H8.28V4.386c0-.525.145-.882.897-.882h.96v-1.62a12.82 12.82 0 00-1.398-.072c-1.383 0-2.33.844-2.33 2.394v1.336H4.847v1.811H6.41V12h1.87z" fill="#fff"/></g><defs><clipPath id="clip0"><path fill="#fff" d="M0 0h12v12H0z"/></clipPath></defs></svg>