<svg width="12" height="12" fill="none" xmlns="http://www.w3.org/2000/svg"><g clip-path="url(#clip0)"><path d="M6 0a6 6 0 00-1.897 11.694c.3.055.41-.13.41-.29 0-.142-.005-.615-.008-1.116-1.67.363-2.021-.708-2.021-.708-.273-.694-.667-.878-.667-.878-.544-.373.041-.365.041-.365.603.042.92.618.92.618.535.918 1.404.653 1.746.5.054-.389.21-.653.381-.803-1.333-.152-2.734-.666-2.734-2.965 0-.655.235-1.19.619-1.61-.063-.152-.268-.762.058-1.589 0 0 .504-.16 1.65.615A5.74 5.74 0 016 2.901c.51.003 1.024.07 1.503.202 1.145-.776 1.649-.615 1.649-.615.326.827.12 1.437.058 1.588.385.42.618.956.618 1.61 0 2.305-1.404 2.813-2.74 2.961.215.186.407.552.407 1.111 0 .803-.007 1.45-.007 1.647 0 .16.108.347.412.288A6 6 0 006 0zM2.247 8.547c-.013.03-.06.039-.103.018-.043-.02-.068-.06-.054-.09.013-.03.06-.039.104-.018.043.02.068.06.053.09zm.295.264c-.028.026-.084.014-.122-.028-.04-.042-.047-.098-.018-.125.03-.026.084-.014.123.028.04.042.047.098.017.125zm.203.336c-.037.026-.097.002-.134-.051-.037-.054-.037-.118 0-.143.038-.026.097-.003.135.05.036.054.036.118-.001.145zm.342.39c-.033.037-.103.027-.154-.022-.052-.049-.067-.117-.034-.154.033-.036.104-.026.155.023.052.049.068.118.033.154zm.443.132c-.015.047-.082.069-.15.049-.068-.02-.112-.076-.099-.123.014-.048.082-.07.15-.048.068.02.113.075.099.122zm.503.056c.002.05-.055.09-.127.092-.072.001-.13-.039-.13-.087 0-.05.056-.091.128-.092.071-.002.13.038.13.087zm.495-.019c.009.049-.04.098-.112.111-.07.013-.134-.017-.143-.065-.008-.049.042-.099.112-.111.07-.013.134.016.143.065z" fill="#fff"/></g><defs><clipPath id="clip0"><path fill="#fff" d="M0 0h12v11.719H0z"/></clipPath></defs></svg>