<svg width="9" height="12" fill="none" xmlns="http://www.w3.org/2000/svg"><g clip-path="url(#clip0)"><path d="M7.253.151a.645.645 0 110 1.29.645.645 0 010-1.29zM4.299 2.243c2.047 0 3.706 1.083 3.706 2.419S6.345 7.08 4.3 7.08C2.253 7.08.593 5.997.593 4.66c0-1.335 1.66-2.418 3.707-2.418z" fill="#fff"/><path d="M4.299 7.081a5.326 5.326 0 01-1.737-.282 7.578 7.578 0 00-.117 1.338c0 1.794.597 3.295 1.4 3.714h.907c.804-.419 1.4-1.92 1.4-3.714 0-.47-.041-.921-.116-1.338a5.32 5.32 0 01-1.737.282z" fill="#fff"/><path d="M5.916 10.918a1.1 1.1 0 00-.378.066 2.39 2.39 0 01-.542.701.62.62 0 00.032.165h1.776a.616.616 0 00.033-.186c0-.412-.412-.746-.921-.746zm-2.859.061a1.106 1.106 0 00-.365-.061c-.508 0-.92.334-.92.746a.6.6 0 00.032.186H3.58a.645.645 0 00.031-.156 2.376 2.376 0 01-.554-.715zm-.611-2.842c0-.388.028-.763.08-1.117-.542.206-.935.817-.935 1.539 0 .807.49 1.475 1.132 1.594a7.088 7.088 0 01-.277-2.016zm3.625-1.121c.052.355.081.731.081 1.121 0 .741-.102 1.432-.278 2.018.647-.113 1.145-.784 1.145-1.596 0-.728-.4-1.343-.948-1.543M1.594 3.008a.817.817 0 00-1.443.528c0 .334.2.62.486.748.118-.49.46-.93.957-1.276zm6.07-.29a.817.817 0 00-.638.306c.489.346.825.786.938 1.274a.818.818 0 00-.3-1.58z" fill="#fff"/><path d="M8.602 3.536a.94.94 0 00-1.594-.67l-.023-.015c-.673-.44-1.553-.695-2.494-.725L5.03.42l1.459.344-.001.031A.766.766 0 106.536.53L4.976.162a.12.12 0 00-.142.08l-.595 1.881c-.99.01-1.922.267-2.627.728h-.001a.937.937 0 00-1.58.685.94.94 0 00.47.813 1.742 1.742 0 00-.03.313c0 .688.406 1.331 1.141 1.811.246.16.52.297.814.406l-.01.056c-.568.252-.946.894-.946 1.624 0 .412.124.812.349 1.125.21.293.496.494.811.572.062.195.132.38.21.55a1.253 1.253 0 00-.148-.008c-.574 0-1.04.388-1.04.866 0 .07.012.143.038.223a.12.12 0 00.114.083h2.01l.002.002h.965l.002-.002h2.021a.12.12 0 00.115-.084.73.73 0 00.038-.222c0-.478-.467-.867-1.041-.867a1.26 1.26 0 00-.159.01 4.87 4.87 0 00.21-.549c.317-.074.606-.274.82-.568.227-.314.352-.716.352-1.131 0-.738-.383-1.382-.96-1.63l-.008-.05c.295-.11.568-.245.814-.406.736-.48 1.14-1.123 1.14-1.811a1.72 1.72 0 00-.025-.295.933.933 0 00.502-.83zM7.253.272a.525.525 0 110 1.05.525.525 0 010-1.05zM.272 3.536a.699.699 0 011.137-.542c-.421.32-.709.7-.846 1.11a.7.7 0 01-.291-.568zm3.817 3.661l.09.003h.017c.068.002.137.002.206 0h.017l.09-.003h.008c.5-.018.981-.1 1.424-.239l.01.075c.027.18.047.362.06.544l.001.009.008.128.002.027.004.111.002.06.002.081a7.956 7.956 0 010 .29l-.001.065a7.57 7.57 0 01-.008.2 6.745 6.745 0 01-.262 1.571 5.055 5.055 0 01-.118.348 3.924 3.924 0 01-.227.492l-.017.031-.007.012a2.308 2.308 0 01-.407.534l-.006.005a1.345 1.345 0 01-.254.189h-.849a1.251 1.251 0 01-.212-.151l-.013-.011-.015-.014A2.276 2.276 0 013.206 11l-.005-.01a3.93 3.93 0 01-.02-.034l-.01-.019c-.077-.143-.15-.3-.215-.47a5.073 5.073 0 01-.118-.35 6.745 6.745 0 01-.261-1.569l-.002-.037a7.326 7.326 0 01-.006-.163l-.002-.066a8.013 8.013 0 010-.289l.002-.08.002-.06a7.63 7.63 0 01.005-.108l.001-.03a7.7 7.7 0 01.008-.125v-.01c.014-.184.034-.365.06-.542l.01-.065.002-.015c.442.14.924.22 1.424.24h.008zm-1.54 2.78c-.49-.198-.838-.77-.838-1.418 0-.573.26-1.081.666-1.332a7.769 7.769 0 00-.011.107l-.002.02c-.006.057-.01.115-.015.172l-.004.051a7.622 7.622 0 00-.01.17l-.003.067a7.878 7.878 0 00-.004.546v.024l.005.1.002.041.003.06.003.05.002.036.01.121v.013c.035.409.1.805.196 1.172zm.775 1.753H1.898a.392.392 0 01-.006-.066c0-.345.359-.626.8-.626.097 0 .192.014.282.04.139.251.294.458.462.62l.012.011.021.02h-.145zm3.393-.066a.39.39 0 01-.006.066H5.128l.021-.02.014-.014c.167-.16.32-.365.458-.614a.982.982 0 01.295-.044c.441 0 .8.28.8.626zM6.219 7.22c.408.249.68.768.68 1.339 0 .656-.355 1.23-.851 1.423a7.013 7.013 0 00.209-1.347l.003-.048a11.988 11.988 0 00.009-.202v-.023l.002-.087v-.03a8.156 8.156 0 00-.005-.43l-.003-.065a8.438 8.438 0 00-.03-.399l-.002-.023a7.327 7.327 0 00-.012-.108zm-.142-.563l-.08.029a5.174 5.174 0 01-1.468.27h-.016a6.152 6.152 0 01-.087.003h-.023a3.64 3.64 0 01-.209 0h-.022c-.03 0-.058-.001-.088-.003H4.07a5.174 5.174 0 01-1.468-.27l-.08-.028C1.44 6.26.713 5.515.713 4.662a1.5 1.5 0 01.037-.333l.004-.017c.108-.45.423-.867.909-1.205l.078-.055c.651-.425 1.557-.689 2.558-.689 1.012 0 1.927.27 2.58.704l.077.055c.48.34.787.755.89 1.203l.001.003a1.5 1.5 0 01.038.334c0 .853-.728 1.599-1.808 1.995zm1.964-2.533c-.132-.412-.416-.793-.834-1.116a.699.699 0 11.833 1.116z" fill="#000"/><path d="M3.015 3.586a.612.612 0 00-.606.606c0 .329.277.596.606.596.33 0 .596-.267.596-.596a.604.604 0 00-.596-.606m2.613 0a.613.613 0 00-.607.606c0 .33.277.596.607.596a.596.596 0 00.596-.596.604.604 0 00-.596-.606" fill="#FF4500"/><path d="M5.682 5.69a.12.12 0 00-.17 0c-.235.236-.625.35-1.19.35h-.01c-.566 0-.955-.114-1.19-.35a.12.12 0 00-.17.17c.282.283.727.42 1.36.42h.008c.633 0 1.078-.137 1.361-.42a.12.12 0 000-.17z" fill="#000"/></g><defs><clipPath id="clip0"><path fill="#fff" d="M0 0h8.605v12H0z"/></clipPath></defs></svg>