<svg width="12" height="10" fill="none" xmlns="http://www.w3.org/2000/svg"><path d="M12 1.178c-.442.2-.916.335-1.414.396a2.512 2.512 0 001.082-1.39 4.87 4.87 0 01-1.563.61A2.436 2.436 0 008.308 0c-1.36 0-2.462 1.125-2.462 2.513 0 .197.022.389.064.573C3.864 2.98 2.05 1.98.835.46a2.541 2.541 0 00-.333 1.263c0 .872.435 1.641 1.095 2.092a2.414 2.414 0 01-1.115-.314v.031c0 1.218.849 2.234 1.975 2.464a2.404 2.404 0 01-1.112.043c.313.999 1.223 1.725 2.3 1.746A4.877 4.877 0 010 8.825a6.866 6.866 0 003.774 1.13c4.528 0 7.005-3.83 7.005-7.15 0-.11-.003-.218-.008-.326A5.062 5.062 0 0012 1.18z" fill="#55ACEE"/></svg>