<svg width="12" height="9" fill="none" xmlns="http://www.w3.org/2000/svg"><g clip-path="url(#clip0)"><path d="M4.762 5.775l3.244-1.678-3.244-1.692v3.37z" fill="#fff"/><path opacity=".12" d="M4.762 2.405l2.846 1.898.398-.206-3.244-1.692z" fill="#420000"/><path d="M11.873 1.819s-.117-.825-.477-1.19C10.94.15 10.43.15 10.19.121 8.52 0 6.002 0 6.002 0h-.004S3.48 0 1.799.122C1.565.15 1.054.15.595.628.24.994.122 1.818.122 1.818S0 2.795 0 3.765v.91c0 .97.122 1.94.122 1.94s.117.825.478 1.19c.454.479 1.054.465 1.321.512.96.093 4.077.121 4.077.121s2.52-.004 4.198-.126c.234-.028.745-.028 1.204-.506.361-.366.478-1.19.478-1.19S12 5.643 12 4.672v-.909c-.005-.97-.127-1.945-.127-1.945zM4.761 5.775v-3.37l3.242 1.692-3.242 1.678z" fill="url(#paint0_linear)"/></g><defs><linearGradient id="paint0_linear" x1="5.998" y1="0" x2="5.998" y2="8.44" gradientUnits="userSpaceOnUse"><stop stop-color="#E52D27"/><stop offset="1" stop-color="#BF171D"/></linearGradient><clipPath id="clip0"><path fill="#fff" d="M0 0h12v8.438H0z"/></clipPath></defs></svg>